<svg xmlns="http://www.w3.org/2000/svg" xmlns:xlink="http://www.w3.org/1999/xlink" version="1.1" width="256" height="256" viewBox="0 0 256 256" xml:space="preserve">

<defs>
</defs>
<g style="stroke: none; stroke-width: 0; stroke-dasharray: none; stroke-linecap: butt; stroke-linejoin: miter; stroke-miterlimit: 10; fill: none; fill-rule: nonzero; opacity: 1;" transform="translate(1.4065934065934016 1.4065934065934016) scale(2.81 2.81)" >
	<rect x="25.24" y="34.16" rx="0" ry="0" width="7.51" height="22.94" style="stroke: none; stroke-width: 1; stroke-dasharray: none; stroke-linecap: butt; stroke-linejoin: miter; stroke-miterlimit: 10; fill: rgb(217,217,217); fill-rule: nonzero; opacity: 1;" transform=" matrix(1 0 0 1 0 0) "/>
	<rect x="45.24" y="34.16" rx="0" ry="0" width="7.51" height="22.94" style="stroke: none; stroke-width: 1; stroke-dasharray: none; stroke-linecap: butt; stroke-linejoin: miter; stroke-miterlimit: 10; fill: rgb(217,217,217); fill-rule: nonzero; opacity: 1;" transform=" matrix(1 0 0 1 0 0) "/>
	<rect x="65.24" y="34.16" rx="0" ry="0" width="7.51" height="32.79" style="stroke: none; stroke-width: 1; stroke-dasharray: none; stroke-linecap: butt; stroke-linejoin: miter; stroke-miterlimit: 10; fill: rgb(217,217,217); fill-rule: nonzero; opacity: 1;" transform=" matrix(1 0 0 1 0 0) "/>
	<rect x="22.7" y="27.91" rx="0" ry="0" width="52.6" height="6.24" style="stroke: none; stroke-width: 1; stroke-dasharray: none; stroke-linecap: butt; stroke-linejoin: miter; stroke-miterlimit: 10; fill: rgb(135,206,217); fill-rule: nonzero; opacity: 1;" transform=" matrix(1 0 0 1 0 0) "/>
	<polyline points="22.7,27.91 19.17,27.91 49,9.09 78.83,27.91 75.3,27.91 " style="stroke: none; stroke-width: 1; stroke-dasharray: none; stroke-linecap: butt; stroke-linejoin: miter; stroke-miterlimit: 10; fill: rgb(217,217,217); fill-rule: nonzero; opacity: 1;" transform="  matrix(1 0 0 1 0 0) "/>
	<rect x="1" y="53.96" rx="0" ry="0" width="13.53" height="26.95" style="stroke: none; stroke-width: 1; stroke-dasharray: none; stroke-linecap: butt; stroke-linejoin: miter; stroke-miterlimit: 10; fill: rgb(67,152,209); fill-rule: nonzero; opacity: 1;" transform=" matrix(1 0 0 1 0 0) "/>
	<path d="M 88.812 61.559 c -0.63 -2.057 -2.689 -3.321 -4.807 -2.944 c -6.373 1.135 -14.088 3.499 -21.357 5.203 l -0.001 -0.001 l 0.001 0 c -0.371 -4.127 -3.759 -7.33 -7.9 -7.47 l -1.88 -0.063 c -6.139 0 -12.817 -4.463 -18.5 -4.463 c -4.996 0 -9.818 1.085 -15.128 5.724 c -0.672 0.587 -1.535 0.919 -2.427 0.912 l -1.823 -0.083 v 17.597 h 5.352 c 1.687 0 3.369 0.185 5.015 0.552 l 14.402 3.211 c 1.3 0.29 2.63 0.427 3.962 0.407 l 7.97 -0.116 c 2.234 -0.032 4.439 -0.503 6.492 -1.386 l 28.241 -11.927 C 88.419 65.858 89.448 63.636 88.812 61.559 z" style="stroke: none; stroke-width: 1; stroke-dasharray: none; stroke-linecap: butt; stroke-linejoin: miter; stroke-miterlimit: 10; fill: rgb(254,201,163); fill-rule: nonzero; opacity: 1;" transform=" matrix(1 0 0 1 0 0) " stroke-linecap="round" />
	<path d="M 62.647 64.818 c -0.512 0 -0.948 -0.391 -0.995 -0.91 c -0.325 -3.617 -3.308 -6.437 -6.938 -6.56 l -1.88 -0.063 c 0 0 -0.001 0 -0.002 0 c -3.267 0.001 -6.639 -1.195 -9.901 -2.352 c -3.059 -1.085 -5.949 -2.109 -8.563 -2.109 c -4.055 0 -8.946 0.65 -14.47 5.477 c -0.866 0.756 -1.977 1.137 -3.093 1.159 l -2.322 -0.104 c -0.552 -0.025 -0.979 -0.492 -0.954 -1.044 c 0.025 -0.553 0.499 -0.978 1.044 -0.954 l 2.285 0.104 c 0.589 -0.037 1.227 -0.232 1.724 -0.666 c 6.022 -5.262 11.359 -5.971 15.785 -5.971 c 2.959 0 6.148 1.131 9.232 2.224 c 3.103 1.101 6.313 2.238 9.269 2.238 l 1.914 0.064 c 4.637 0.156 8.446 3.759 8.862 8.379 c 0.05 0.551 -0.356 1.036 -0.906 1.086 C 62.708 64.817 62.678 64.818 62.647 64.818 z" style="stroke: none; stroke-width: 1; stroke-dasharray: none; stroke-linecap: butt; stroke-linejoin: miter; stroke-miterlimit: 10; fill: rgb(0,0,0); fill-rule: nonzero; opacity: 1;" transform=" matrix(1 0 0 1 0 0) " stroke-linecap="round" />
	<path d="M 43.472 81.146 c -1.32 0 -2.641 -0.146 -3.931 -0.434 L 25.14 77.502 c -1.573 -0.351 -3.187 -0.528 -4.798 -0.528 h -5.814 c -0.552 0 -1 -0.447 -1 -1 c 0 -0.553 0.448 -1 1 -1 h 5.814 c 1.757 0 3.518 0.194 5.233 0.577 l 14.401 3.211 c 1.222 0.271 2.476 0.396 3.729 0.383 l 7.97 -0.115 c 2.113 -0.031 4.17 -0.471 6.112 -1.305 l 28.247 -11.93 c 1.523 -0.655 2.309 -2.351 1.821 -3.942 c -0.48 -1.573 -2.058 -2.541 -3.676 -2.253 c -3.898 0.694 -8.247 1.838 -12.85 3.049 c -12.497 3.287 -25.421 6.684 -31.218 1.368 c -0.407 -0.374 -0.435 -1.006 -0.061 -1.413 c 0.373 -0.406 1.005 -0.435 1.413 -0.062 c 4.995 4.582 17.937 1.176 29.358 -1.827 c 4.644 -1.222 9.031 -2.376 13.01 -3.084 c 2.605 -0.465 5.162 1.099 5.937 3.637 c 0.787 2.568 -0.481 5.306 -2.95 6.367 l -28.247 11.93 c -2.178 0.936 -4.489 1.43 -6.866 1.465 l -7.97 0.115 C 43.647 81.145 43.56 81.146 43.472 81.146 z" style="stroke: none; stroke-width: 1; stroke-dasharray: none; stroke-linecap: butt; stroke-linejoin: miter; stroke-miterlimit: 10; fill: rgb(0,0,0); fill-rule: nonzero; opacity: 1;" transform=" matrix(1 0 0 1 0 0) " stroke-linecap="round" />
	<path d="M 14.528 81.914 H 1 c -0.552 0 -1 -0.447 -1 -1 v -26.95 c 0 -0.553 0.448 -1 1 -1 h 13.527 c 0.552 0 1 0.447 1 1 v 26.95 C 15.528 81.466 15.08 81.914 14.528 81.914 z M 2 79.914 h 11.527 v -24.95 H 2 V 79.914 z" style="stroke: none; stroke-width: 1; stroke-dasharray: none; stroke-linecap: butt; stroke-linejoin: miter; stroke-miterlimit: 10; fill: rgb(0,0,0); fill-rule: nonzero; opacity: 1;" transform=" matrix(1 0 0 1 0 0) " stroke-linecap="round" />
	<path d="M 52.757 51.099 c -0.553 0 -1 -0.447 -1 -1 V 35.156 h -5.514 v 13.942 c 0 0.553 -0.448 1 -1 1 c -0.552 0 -1 -0.447 -1 -1 V 34.156 c 0 -0.552 0.448 -1 1 -1 h 7.514 c 0.553 0 1 0.448 1 1 v 15.942 C 53.757 50.651 53.309 51.099 52.757 51.099 z" style="stroke: none; stroke-width: 1; stroke-dasharray: none; stroke-linecap: butt; stroke-linejoin: miter; stroke-miterlimit: 10; fill: rgb(0,0,0); fill-rule: nonzero; opacity: 1;" transform=" matrix(1 0 0 1 0 0) " stroke-linecap="round" />
	<path d="M 65.243 58.098 c -0.553 0 -1 -0.447 -1 -1 V 34.156 c 0 -0.552 0.447 -1 1 -1 h 7.514 c 0.553 0 1 0.448 1 1 v 20.942 c 0 0.553 -0.447 1 -1 1 s -1 -0.447 -1 -1 V 35.156 h -5.514 v 21.942 C 66.243 57.651 65.796 58.098 65.243 58.098 z" style="stroke: none; stroke-width: 1; stroke-dasharray: none; stroke-linecap: butt; stroke-linejoin: miter; stroke-miterlimit: 10; fill: rgb(0,0,0); fill-rule: nonzero; opacity: 1;" transform=" matrix(1 0 0 1 0 0) " stroke-linecap="round" />
	<path d="M 25.243 49.099 c -0.552 0 -1 -0.447 -1 -1 V 34.156 c 0 -0.552 0.448 -1 1 -1 h 7.515 c 0.552 0 1 0.448 1 1 v 12.942 c 0 0.553 -0.448 1 -1 1 c -0.552 0 -1 -0.447 -1 -1 V 35.156 h -5.515 v 12.942 C 26.243 48.651 25.795 49.099 25.243 49.099 z" style="stroke: none; stroke-width: 1; stroke-dasharray: none; stroke-linecap: butt; stroke-linejoin: miter; stroke-miterlimit: 10; fill: rgb(0,0,0); fill-rule: nonzero; opacity: 1;" transform=" matrix(1 0 0 1 0 0) " stroke-linecap="round" />
	<path d="M 78.828 28.914 h -3.528 c -0.553 0 -1 -0.448 -1 -1 s 0.447 -1 1 -1 h 0.07 L 49 10.268 L 22.63 26.914 h 0.07 c 0.552 0 1 0.448 1 1 s -0.448 1 -1 1 h -3.528 c -0.445 0 -0.837 -0.294 -0.96 -0.722 c -0.124 -0.428 0.05 -0.886 0.427 -1.124 L 48.466 8.24 c 0.326 -0.206 0.742 -0.206 1.068 0 l 29.828 18.828 c 0.376 0.238 0.55 0.696 0.427 1.124 C 79.665 28.619 79.273 28.914 78.828 28.914 z" style="stroke: none; stroke-width: 1; stroke-dasharray: none; stroke-linecap: butt; stroke-linejoin: miter; stroke-miterlimit: 10; fill: rgb(0,0,0); fill-rule: nonzero; opacity: 1;" transform=" matrix(1 0 0 1 0 0) " stroke-linecap="round" />
	<path d="M 75.299 35.156 H 22.7 c -0.552 0 -1 -0.448 -1 -1 v -6.243 c 0 -0.552 0.448 -1 1 -1 h 17.858 c 0.552 0 1 0.448 1 1 s -0.448 1 -1 1 H 23.7 v 4.243 h 50.599 v -4.243 H 57.039 c -0.553 0 -1 -0.448 -1 -1 s 0.447 -1 1 -1 h 18.261 c 0.553 0 1 0.448 1 1 v 6.243 C 76.299 34.709 75.852 35.156 75.299 35.156 z" style="stroke: none; stroke-width: 1; stroke-dasharray: none; stroke-linecap: butt; stroke-linejoin: miter; stroke-miterlimit: 10; fill: rgb(0,0,0); fill-rule: nonzero; opacity: 1;" transform=" matrix(1 0 0 1 0 0) " stroke-linecap="round" />
	<path d="M 48.921 28.38 c -0.482 0 -0.964 -0.103 -1.416 -0.309 c -0.833 -0.379 -1.468 -1.059 -1.789 -1.916 c -0.194 -0.517 0.068 -1.093 0.586 -1.287 c 0.518 -0.196 1.094 0.069 1.287 0.586 c 0.134 0.356 0.397 0.639 0.744 0.796 c 0.346 0.158 0.734 0.169 1.089 0.037 c 0.736 -0.276 1.11 -1.099 0.835 -1.834 c -0.158 -0.42 -0.498 -0.735 -0.933 -0.863 l -1.273 -0.464 c -0.981 -0.286 -1.799 -1.043 -2.18 -2.059 c -0.663 -1.769 0.237 -3.747 2.004 -4.41 c 0.857 -0.321 1.788 -0.29 2.62 0.089 c 0.833 0.379 1.468 1.059 1.789 1.916 c 0.193 0.517 -0.068 1.093 -0.586 1.287 c -0.517 0.195 -1.094 -0.069 -1.287 -0.586 c -0.134 -0.356 -0.397 -0.639 -0.744 -0.796 c -0.346 -0.157 -0.734 -0.17 -1.089 -0.037 c -0.736 0.276 -1.11 1.099 -0.835 1.835 c 0.158 0.42 0.498 0.735 0.933 0.863 l 1.273 0.464 c 0.981 0.286 1.799 1.043 2.181 2.059 c 0.662 1.769 -0.237 3.747 -2.005 4.41 C 49.733 28.306 49.326 28.38 48.921 28.38 z" style="stroke: none; stroke-width: 1; stroke-dasharray: none; stroke-linecap: butt; stroke-linejoin: miter; stroke-miterlimit: 10; fill: rgb(0,0,0); fill-rule: nonzero; opacity: 1;" transform=" matrix(1 0 0 1 0 0) " stroke-linecap="round" />
	<path d="M 49 18.441 c -0.553 0 -1 -0.448 -1 -1 v -1.355 c 0 -0.552 0.447 -1 1 -1 c 0.553 0 1 0.448 1 1 v 1.355 C 50 17.993 49.553 18.441 49 18.441 z" style="stroke: none; stroke-width: 1; stroke-dasharray: none; stroke-linecap: butt; stroke-linejoin: miter; stroke-miterlimit: 10; fill: rgb(0,0,0); fill-rule: nonzero; opacity: 1;" transform=" matrix(1 0 0 1 0 0) " stroke-linecap="round" />
	<path d="M 49 29.73 c -0.553 0 -1 -0.448 -1 -1 v -1.355 c 0 -0.552 0.447 -1 1 -1 c 0.553 0 1 0.448 1 1 v 1.355 C 50 29.282 49.553 29.73 49 29.73 z" style="stroke: none; stroke-width: 1; stroke-dasharray: none; stroke-linecap: butt; stroke-linejoin: miter; stroke-miterlimit: 10; fill: rgb(0,0,0); fill-rule: nonzero; opacity: 1;" transform=" matrix(1 0 0 1 0 0) " stroke-linecap="round" />
</g>
</svg>